<svg xmlns="http://www.w3.org/2000/svg" xmlns:xlink="http://www.w3.org/1999/xlink" version="1.1" x="0px" y="0px" viewBox="0 0 64 64" style="enable-background:new 0 0 64 64;" xml:space="preserve">
    <path fill="#ffffff" d="M44.5,63h-43C1.224,63,1,62.776,1,62.5v-52c0-0.133,0.053-0.26,0.146-0.354l9-9C10.24,1.053,10.367,1,10.5,1h34  C44.776,1,45,1.224,45,1.5v27c0,0.276-0.224,0.5-0.5,0.5S44,28.776,44,28.5V2H10.707L2,10.707V62h42V41.5c0-0.276,0.224-0.5,0.5-0.5  s0.5,0.224,0.5,0.5v21C45,62.776,44.776,63,44.5,63z"/>
    <path fill="#ffffff" d="M10.5,11h-9C1.224,11,1,10.776,1,10.5S1.224,10,1.5,10H10V1.5C10,1.224,10.224,1,10.5,1S11,1.224,11,1.5v9  C11,10.776,10.776,11,10.5,11z"/>
    <path fill="#ffffff" d="M13.5,16h-7C6.224,16,6,15.776,6,15.5S6.224,15,6.5,15h7c0.276,0,0.5,0.224,0.5,0.5S13.776,16,13.5,16z"/>
    <path fill="#ffffff" d="M21.5,39h-15C6.224,39,6,38.776,6,38.5S6.224,38,6.5,38h15c0.276,0,0.5,0.224,0.5,0.5S21.776,39,21.5,39z"/>
    <path fill="#ffffff" d="M13.5,42h-7C6.224,42,6,41.776,6,41.5S6.224,41,6.5,41h7c0.276,0,0.5,0.224,0.5,0.5S13.776,42,13.5,42z"/>
    <path fill="#ffffff" d="M13.5,58h-7C6.224,58,6,57.776,6,57.5S6.224,57,6.5,57h7c0.276,0,0.5,0.224,0.5,0.5S13.776,58,13.5,58z"/>
    <path fill="#ffffff" d="M39.5,21h-33C6.224,21,6,20.776,6,20.5S6.224,20,6.5,20h33c0.276,0,0.5,0.224,0.5,0.5S39.776,21,39.5,21z"/>
    <path fill="#ffffff" d="M32.5,26h-26C6.224,26,6,25.776,6,25.5S6.224,25,6.5,25h26c0.276,0,0.5,0.224,0.5,0.5S32.776,26,32.5,26z"/>
    <path fill="#ffffff" d="M26.5,31h-20C6.224,31,6,30.776,6,30.5S6.224,30,6.5,30h20c0.276,0,0.5,0.224,0.5,0.5S26.776,31,26.5,31z"/>
    <path fill="#ffffff" d="M38.5,9h-8C29.673,9,29,8.327,29,7.5S29.673,6,30.5,6h8C39.327,6,40,6.673,40,7.5S39.327,9,38.5,9z M30.5,7  C30.224,7,30,7.224,30,7.5S30.224,8,30.5,8h8C38.776,8,39,7.776,39,7.5S38.776,7,38.5,7H30.5z"/>
    <path fill="#ffffff" d="M62.5,58h-18c-0.276,0-0.5-0.224-0.5-0.5s0.224-0.5,0.5-0.5H62V34.745l-17.807-13.85c-0.218-0.169-0.257-0.483-0.087-0.702  c0.169-0.217,0.483-0.257,0.702-0.087l18,14C62.929,34.2,63,34.346,63,34.5v23C63,57.776,62.776,58,62.5,58z"/>
    <path fill="#ffffff" d="M62.5,58c-0.107,0-0.215-0.034-0.307-0.105l-18-14c-0.218-0.169-0.257-0.483-0.087-0.702  c0.169-0.217,0.483-0.258,0.702-0.087l18,14c0.218,0.169,0.257,0.483,0.087,0.702C62.796,57.934,62.648,58,62.5,58z"/>
    <path fill="#ffffff" d="M47.715,46.5c-0.149,0-0.296-0.066-0.395-0.193c-0.17-0.218-0.13-0.532,0.087-0.702l14.786-11.5  c0.22-0.17,0.532-0.129,0.702,0.087c0.17,0.218,0.13,0.532-0.087,0.702l-14.786,11.5C47.93,46.466,47.822,46.5,47.715,46.5z"/>
    <path fill="#ffffff" d="M62.5,35h-18c-0.276,0-0.5-0.224-0.5-0.5s0.224-0.5,0.5-0.5h18c0.276,0,0.5,0.224,0.5,0.5S62.776,35,62.5,35z"/>
    <path fill="#ffffff" d="M44.5,37c-0.276,0-0.5-0.224-0.5-0.5v-5c0-0.276,0.224-0.5,0.5-0.5s0.5,0.224,0.5,0.5v5C45,36.776,44.776,37,44.5,37z"/><text x="0" y="79" fill="#ffffff" font-size="5px" font-weight="bold" font-family="'Helvetica Neue', Helvetica, Arial-Unicode, Arial, Sans-serif">Created by Silvia Natalia</text><text x="0" y="84" fill="#ffffff" font-size="5px" font-weight="bold" font-family="'Helvetica Neue', Helvetica, Arial-Unicode, Arial, Sans-serif">from the Noun Project</text></svg>