<svg xmlns="http://www.w3.org/2000/svg" xmlns:xlink="http://www.w3.org/1999/xlink" version="1.1" x="0px" y="0px" viewBox="0 0 100 100" enable-background="new 0 0 100 100" xml:space="preserve"><g><polygon fill="none" points="34.461,57.994 65.539,57.994 69.44,55.177 30.56,55.177  "/>
    <path fill="#ffffff" d="M22.334,49.237l8.01,5.783v-3.109h39.311v3.109l8.01-5.783V18.532H22.334V49.237z M30.503,27.321h16.195v3.266   H30.503V27.321z M30.345,33.662h39.311v3.266H30.345V33.662z M30.345,39.744h39.311v3.267H30.345V39.744z M30.345,45.827h39.311   v3.267H30.345V45.827z"/>
    <path fill='#ffffff' d="M79.019,33.859V17.177H55.913L50,12.909l-5.913,4.268H20.981v16.682l-9.976,7.201v46.031h10.652h56.684h10.652V41.06   L79.019,33.859z M65.539,57.994H34.461l-3.901-2.817H69.44L65.539,57.994z M77.665,49.237l-8.01,5.783v-3.109H30.345v3.109   l-8.01-5.783V18.532h55.331V49.237z"/><rect x="30.503" y="27.321" width="16.195" height="3.266"/><rect x="30.345" y="33.662" width="39.311" height="3.266"/><rect x="30.345" y="39.744" width="39.311" height="3.267"/><rect x="30.345" y="45.827" width="39.311" height="3.267"/></g><text x="0" y="115" fill="#000000" font-size="5px" font-weight="bold" font-family="'Helvetica Neue', Helvetica, Arial-Unicode, Arial, Sans-serif">Created by Ker'is</text><text x="0" y="120" fill="#000000" font-size="5px" font-weight="bold" font-family="'Helvetica Neue', Helvetica, Arial-Unicode, Arial, Sans-serif">from the Noun Project</text></svg>