<svg xmlns="http://www.w3.org/2000/svg" xmlns:xlink="http://www.w3.org/1999/xlink" version="1.1" x="0px" y="0px" viewBox="0 0 100 100" enable-background="new 0 0 100 100" xml:space="preserve"><path d="M71.19,79.375h-44c-0.76,0-1.375-0.615-1.375-1.375V23c0-0.759,0.615-1.375,1.375-1.375h44c0.76,0,1.375,0.616,1.375,1.375  v55C72.565,78.76,71.95,79.375,71.19,79.375z M28.565,76.625h41.25v-52.25h-41.25V76.625z"/><path d="M63.356,32.717H35.023c-0.76,0-1.375-0.616-1.375-1.375s0.615-1.375,1.375-1.375h28.333c0.76,0,1.375,0.616,1.375,1.375  S64.116,32.717,63.356,32.717z"/><path d="M63.356,38.717H35.023c-0.553,0-1-0.448-1-1s0.447-1,1-1h28.333c0.553,0,1,0.448,1,1S63.909,38.717,63.356,38.717z"/><path d="M63.356,45.091H35.023c-0.553,0-1-0.448-1-1s0.447-1,1-1h28.333c0.553,0,1,0.448,1,1S63.909,45.091,63.356,45.091z"/><path d="M63.356,51.465H35.023c-0.553,0-1-0.447-1-1c0-0.552,0.447-1,1-1h28.333c0.553,0,1,0.448,1,1  C64.356,51.018,63.909,51.465,63.356,51.465z"/><path d="M63.356,57.84H35.023c-0.553,0-1-0.447-1-1s0.447-1,1-1h28.333c0.553,0,1,0.447,1,1S63.909,57.84,63.356,57.84z"/><path d="M63.356,64.214H35.023c-0.553,0-1-0.447-1-1s0.447-1,1-1h28.333c0.553,0,1,0.447,1,1S63.909,64.214,63.356,64.214z"/><path d="M63.356,70.588H35.023c-0.553,0-1-0.447-1-1s0.447-1,1-1h28.333c0.553,0,1,0.447,1,1S63.909,70.588,63.356,70.588z"/><text x="0" y="115" fill="#000000" font-size="5px" font-weight="bold" font-family="'Helvetica Neue', Helvetica, Arial-Unicode, Arial, Sans-serif">Created by MONTANA RUCOBO</text><text x="0" y="120" fill="#000000" font-size="5px" font-weight="bold" font-family="'Helvetica Neue', Helvetica, Arial-Unicode, Arial, Sans-serif">from the Noun Project</text></svg>