<svg xmlns="http://www.w3.org/2000/svg" xmlns:xlink="http://www.w3.org/1999/xlink" version="1.1" x="0px" y="0px" viewBox="0 0 36 45" style="enable-background:new 0 0 36 36;" xml:space="preserve"><g><polygon points="24.93,16.91 29.21,14.05 20.65,14.05  "/><path d="M30.36,19.47v-4.92c0-0.02-0.01-0.04-0.01-0.06l-5.14,3.43c-0.08,0.06-0.18,0.08-0.28,0.08s-0.19-0.03-0.28-0.08   l-5.15-3.43c0,0.02-0.01,0.04-0.01,0.06v4.92c0,0.28,0.22,0.5,0.5,0.5h9.87C30.14,19.97,30.36,19.75,30.36,19.47z"/><path d="M8.14,34.32h14.79c1.38,0,2.5-1.12,2.5-2.5v-8.87c0-0.28-0.22-0.5-0.5-0.5s-0.5,0.22-0.5,0.5v4.91c0,0.83-0.67,1.5-1.5,1.5   H8.14c-0.83,0-1.5-0.67-1.5-1.5V8.13c0-0.83,0.67-1.5,1.5-1.5h14.79c0.83,0,1.5,0.67,1.5,1.5v2.44c0,0.28,0.22,0.5,0.5,0.5   s0.5-0.22,0.5-0.5v-6.4c0-1.38-1.12-2.5-2.5-2.5H8.14c-1.38,0-2.5,1.12-2.5,2.5v3.96v19.74v3.96C5.64,33.2,6.76,34.32,8.14,34.32z    M15.53,31c0.46,0,0.83,0.37,0.83,0.83s-0.37,0.83-0.83,0.83s-0.83-0.37-0.83-0.83S15.08,31,15.53,31z M13.56,3.66h3.96   c0.28,0,0.5,0.22,0.5,0.5s-0.22,0.5-0.5,0.5h-3.96c-0.28,0-0.5-0.22-0.5-0.5S13.28,3.66,13.56,3.66z"/></g><text x="0" y="51" fill="#000000" font-size="5px" font-weight="bold" font-family="'Helvetica Neue', Helvetica, Arial-Unicode, Arial, Sans-serif">Created by barurezeki</text><text x="0" y="56" fill="#000000" font-size="5px" font-weight="bold" font-family="'Helvetica Neue', Helvetica, Arial-Unicode, Arial, Sans-serif">from the Noun Project</text></svg>