<svg xmlns="http://www.w3.org/2000/svg" xmlns:xlink="http://www.w3.org/1999/xlink" version="1.1" x="0px" y="0px" viewBox="0 0 100 100" enable-background="new 0 0 100 100" xml:space="preserve"><g>
    <path fill="#000000" d="M16.979,21.55c1.11,5.52,5.22,9.88,10.59,11.35l1.33,6.59h-0.27c-0.15,0-0.31,0.01-0.46,0.02   c-3.18,0.21-5.69,2.66-5.69,5.63c0,1.53,0.65,2.97,1.85,4.05c0.04,0.03,0.09,0.06,0.12,0.09c-1.21,1.04-1.97,2.51-1.97,4.16   c0,1.52,0.67,3,1.85,4.06c0.4,0.34,0.83,0.61,1.28,0.85c-0.72,0.89-1.16,1.99-1.16,3.17c0,2.51,1.92,4.61,4.53,5.24   c-0.49,0.8-0.78,1.69-0.78,2.66c0,3.02,2.76,5.48,6.15,5.48h1.7l0.79,3.87c0.97,4.81,1.76,8.74,2.19,10.87   c0.35,1.74,1.37,3.25,2.86,4.24c1.5,0.99,3.27,1.34,5.02,0.99c3.16-0.65,5.35-3.45,5.35-6.56c0-0.44-0.04-0.88-0.13-1.31   l-2.45-12.1h8.64c1.6,0,3.07-0.51,4.28-1.39c1.01,1.05,2.42,1.69,3.97,1.69h11.21c3.05,0,5.54-2.49,5.54-5.54v-18.2   c0-3.05-2.49-5.54-5.54-5.54h-11.21c-0.95,0-1.84,0.24-2.62,0.66c-0.39-0.68-0.87-1.42-1.46-2.24l-5.92-7.38   c-0.01-0.01-0.01-0.01-0.01-0.02c-1.24-1.53-3.08-2.42-5.05-2.42h-6.62c-1.15,0-2.24,0.33-3.18,0.93l-1.06-5.21   c3.59-2.84,5.65-7.11,5.65-11.6c0-0.98-0.09-1.97-0.29-2.95c-0.96-4.76-4.13-8.66-8.47-10.59c-0.83-0.37-1.73,0.32-1.58,1.2   l1.49,9.04c0.21,1.28-0.66,2.5-1.94,2.71l-8.92,1.48c-1.28,0.21-2.5-0.66-2.71-1.95l-1.38-8.36c-0.16-0.94-1.32-1.26-1.96-0.56   C17.389,12.11,16.029,16.85,16.979,21.55z M49.069,71.88l-1.3-6.41c0-0.01,0-0.01,0-0.02l-2.27-11.22c0,0,0,0,0-0.01l-0.43-2.1   c0.47-0.42,0.87-0.9,1.17-1.46l0.35-0.59c1.74,5.44,4.97,9.09,9.84,11.11c0.77,0.31,1.65-0.05,1.97-0.83   c0.08-0.18,0.12-0.38,0.12-0.58c0-0.59-0.35-1.15-0.94-1.4c-4.88-2.01-7.8-6.13-8.94-12.59c0-0.02-0.01-0.03-0.01-0.04   c-0.03-0.14-0.06-0.28-0.12-0.4c-0.01-0.01-0.01-0.03-0.02-0.04c-0.06-0.13-0.15-0.25-0.25-0.36c-0.01-0.01-0.02-0.02-0.03-0.04   c-0.01,0-0.02-0.01-0.02-0.01c-0.09-0.09-0.19-0.17-0.31-0.24c-0.04-0.02-0.1-0.03-0.14-0.05c-0.02-0.01-0.04-0.02-0.07-0.03   c-0.16-0.06-0.33-0.09-0.49-0.1c-0.03,0-0.05,0-0.07,0c-0.17,0-0.34,0.04-0.5,0.1c-0.02,0.01-0.04,0.01-0.06,0.02   c-0.17,0.07-0.32,0.17-0.45,0.29c-0.01,0.01-0.02,0.02-0.03,0.02c-0.01,0.01-0.02,0.03-0.02,0.04c-0.07,0.07-0.13,0.14-0.18,0.23   c-0.02,0.02-0.03,0.03-0.04,0.05c0,0.01-0.01,0.01-0.01,0.01l-2.21,3.96c-0.5,0.89-1.47,1.44-2.53,1.44c-0.54,0-1.05-0.13-1.52-0.4   c-1.39-0.77-1.52-1.29-0.7-2.75c0.03-0.05,0.06-0.1,0.08-0.16l0.03-0.08l3.28-7.95c0-0.01,0-0.01,0.01-0.01l0.14-0.37   c0.52-0.84,1.46-1.37,2.49-1.37h6.62c1.05,0,2.03,0.48,2.69,1.3l5.88,7.32c0.75,1.04,1.26,1.88,1.63,2.63   c-0.43,0.8-0.68,1.7-0.68,2.67v8.31v9.89c0,0.39,0.04,0.77,0.12,1.14c-0.76,0.67-1.75,1.08-2.83,1.08h-8.64H49.069z M31.229,69.42   c0-1.33,1.43-2.46,3.12-2.46h4h3.75c1.69,0,3.13,1.13,3.13,2.46s-1.44,2.46-3.13,2.46h-4.8h-0.01h-2.94   C32.659,71.88,31.229,70.75,31.229,69.42z M27.479,61.52c0-1.31,1.43-2.42,3.12-2.42h7.75c1.69,0,3.13,1.11,3.13,2.42   s-1.44,2.42-3.13,2.42h-4h-3.75C28.909,63.94,27.479,62.83,27.479,61.52z M25.499,53.44c0-1.44,1.43-2.64,3.13-2.64h7.21   c0.52,0.91,1.37,1.59,2.24,2.07c0.44,0.25,0.93,0.44,1.42,0.58c-0.01,1.43-1.43,2.63-3.12,2.63h-7.75c-0.87,0-1.68-0.3-2.28-0.84   C25.799,54.76,25.499,54.11,25.499,53.44z M30.729,42.51c0.01,0,0.02,0,0.03,0h5.62c0.41,0,0.8,0.08,1.19,0.21l-1.4,3.37   c-0.33,0.6-0.54,1.16-0.67,1.68h-6.87c-0.87,0-1.68-0.29-2.28-0.83c-0.55-0.5-0.85-1.13-0.85-1.8c0-1.33,1.26-2.48,2.81-2.62   c0.1-0.01,0.21-0.01,0.32-0.01H30.729z"/></g><text x="0" y="115" fill="#000000" font-size="5px" font-weight="bold" font-family="'Helvetica Neue', Helvetica, Arial-Unicode, Arial, Sans-serif">Created by Maxim Kulikov</text><text x="0" y="120" fill="#000000" font-size="5px" font-weight="bold" font-family="'Helvetica Neue', Helvetica, Arial-Unicode, Arial, Sans-serif">from the Noun Project</text></svg>