<svg xmlns="http://www.w3.org/2000/svg" xmlns:xlink="http://www.w3.org/1999/xlink" version="1.1" x="0px" y="0px" viewBox="0 0 100 100" enable-background="new 0 0 100 100" xml:space="preserve">
    <path fill='#ffffff' d="M80.304,0H19.697c-2.79,0-5.051,2.262-5.051,5.051V94.95c0,2.79,2.261,5.05,5.051,5.05h60.606c2.789,0,5.05-2.261,5.05-5.05  V5.051C85.354,2.262,83.093,0,80.304,0z M81.986,94.95c0,0.928-0.755,1.684-1.683,1.684H19.697c-0.929,0-1.684-0.755-1.684-1.684  V5.051c0-0.928,0.755-1.684,1.684-1.684h60.606c0.928,0,1.683,0.755,1.683,1.684V94.95z M41.583,23.064H78.62V12.963H41.583V23.064z   M44.057,15.438h32.089v5.152H44.057V15.438z M46.633,85.354h26.937V75.253H46.633V85.354z M50.337,78.957h19.528v2.693H50.337  V78.957z M58.417,28.115h-33.67v43.771h33.67V28.115z M56.397,69.865h-29.63v-39.73h29.63V69.865z M29.798,37.542h23.569  c0.558,0,1.01-0.452,1.01-1.01c0-0.558-0.452-1.01-1.01-1.01H29.798c-0.558,0-1.01,0.452-1.01,1.01  C28.788,37.09,29.24,37.542,29.798,37.542z M29.798,45.96h23.569c0.558,0,1.01-0.452,1.01-1.01c0-0.558-0.452-1.01-1.01-1.01H29.798  c-0.558,0-1.01,0.453-1.01,1.01C28.788,45.508,29.24,45.96,29.798,45.96z M29.798,54.377h23.569c0.558,0,1.01-0.452,1.01-1.01  c0-0.558-0.452-1.01-1.01-1.01H29.798c-0.558,0-1.01,0.452-1.01,1.01C28.788,53.925,29.24,54.377,29.798,54.377z M29.798,62.795  h23.569c0.558,0,1.01-0.452,1.01-1.01s-0.452-1.01-1.01-1.01H29.798c-0.558,0-1.01,0.452-1.01,1.01S29.24,62.795,29.798,62.795z   M63.468,61.785h10.102v-33.67H63.468V61.785z M64.438,29.085h8.16v31.729h-8.16V29.085z M71.044,36.064h-5.051  c-0.258,0-0.467,0.209-0.467,0.468S65.735,37,65.993,37h5.051c0.258,0,0.468-0.209,0.468-0.468S71.302,36.064,71.044,36.064z   M71.044,39.432h-5.051c-0.258,0-0.467,0.209-0.467,0.468s0.209,0.467,0.467,0.467h5.051c0.258,0,0.468-0.209,0.468-0.467  S71.302,39.432,71.044,39.432z M71.044,42.799h-5.051c-0.258,0-0.467,0.209-0.467,0.468c0,0.258,0.209,0.467,0.467,0.467h5.051  c0.258,0,0.468-0.209,0.468-0.467C71.512,43.008,71.302,42.799,71.044,42.799z M71.044,46.166h-5.051  c-0.258,0-0.467,0.209-0.467,0.467s0.209,0.467,0.467,0.467h5.051c0.258,0,0.468-0.209,0.468-0.467S71.302,46.166,71.044,46.166z   M71.044,49.533h-5.051c-0.258,0-0.467,0.209-0.467,0.468s0.209,0.467,0.467,0.467h5.051c0.258,0,0.468-0.209,0.468-0.467  S71.302,49.533,71.044,49.533z M71.044,52.9h-5.051c-0.258,0-0.467,0.209-0.467,0.467c0,0.258,0.209,0.468,0.467,0.468h5.051  c0.258,0,0.468-0.209,0.468-0.468C71.512,53.109,71.302,52.9,71.044,52.9z"/><text x="0" y="115" fill="#000000" font-size="5px" font-weight="bold" font-family="'Helvetica Neue', Helvetica, Arial-Unicode, Arial, Sans-serif">Created by Álvaro Bueno</text><text x="0" y="120" fill="#000000" font-size="5px" font-weight="bold" font-family="'Helvetica Neue', Helvetica, Arial-Unicode, Arial, Sans-serif">from the Noun Project</text></svg>